HIERARCHY
ROOT Hips
{
	OFFSET 36.650902 -6.097563 81.276199
	CHANNELS 6 Xposition Yposition Zposition Xrotation Yrotation Zrotation
	JOINT spine
	{
		OFFSET 0.000000 -0.359108 6.244789
		CHANNELS 3 Xrotation Yrotation Zrotation
		JOINT spine1
		{
			OFFSET 0.000000 -0.000001 9.069412
			CHANNELS 3 Xrotation Yrotation Zrotation
			JOINT spine2
			{
				OFFSET 0.000000 -0.000001 8.690140
				CHANNELS 3 Xrotation Yrotation Zrotation
				JOINT Neck
				{
					OFFSET 0.000000 -1.063724 22.311195
					CHANNELS 3 Xrotation Yrotation Zrotation
					JOINT Head
					{
						OFFSET 0.000000 -0.000001 6.740814
						CHANNELS 3 Xrotation Yrotation Zrotation
						End Site
						{
							OFFSET 0.000000 5.380967 16.316498
						}
					}
				}
				JOINT RightShoulder
				{
					OFFSET -3.659161 0.509512 9.384682
					CHANNELS 3 Xrotation Yrotation Zrotation
					JOINT RightArm
					{
						OFFSET 0.000000 -0.000002 12.308899
						CHANNELS 3 Xrotation Yrotation Zrotation
						JOINT RightArmRoll
						{
							OFFSET 0.000000 -0.000001 6.213745
							CHANNELS 3 Xrotation Yrotation Zrotation
							JOINT RightForeArm
							{
								OFFSET 0.000000 -0.000003 18.098495
								CHANNELS 3 Xrotation Yrotation Zrotation
								JOINT RightForeArmRoll
								{
									OFFSET 0.000000 -0.000001 6.972794
									CHANNELS 3 Xrotation Yrotation Zrotation
									JOINT RightHand
									{
										OFFSET 0.000000 -0.000002 13.992905
										CHANNELS 3 Xrotation Yrotation Zrotation
										End Site
										{
											OFFSET 0.000000 0.000000 0.100006
										}
									}
								}
							}
						}
					}
				}
				JOINT LeftShoulder
				{
					OFFSET 3.659161 0.509512 9.384682
					CHANNELS 3 Xrotation Yrotation Zrotation
					JOINT LeftArm
					{
						OFFSET 0.000000 -0.000002 12.308899
						CHANNELS 3 Xrotation Yrotation Zrotation
						JOINT LeftArmRoll
						{
							OFFSET 0.000000 -0.000001 6.213745
							CHANNELS 3 Xrotation Yrotation Zrotation
							JOINT LeftForeArm
							{
								OFFSET 0.000000 -0.000003 18.098495
								CHANNELS 3 Xrotation Yrotation Zrotation
								JOINT LeftForeArmRoll
								{
									OFFSET 0.000000 -0.000001 6.972794
									CHANNELS 3 Xrotation Yrotation Zrotation
									JOINT LeftHand
									{
										OFFSET 0.000000 -0.000002 13.992905
										CHANNELS 3 Xrotation Yrotation Zrotation
										End Site
										{
											OFFSET 0.000000 0.000000 0.100006
										}
									}
								}
							}
						}
					}
				}
			}
		}
	}
	JOINT RightUpLeg
	{
		OFFSET -5.535151 0.851455 -1.014999
		CHANNELS 3 Xrotation Yrotation Zrotation
		JOINT RightUpLegRoll
		{
			OFFSET 0.000000 -0.000003 16.407501
			CHANNELS 3 Xrotation Yrotation Zrotation
			JOINT RightLeg
			{
				OFFSET 0.000000 0.000003 -20.318100
				CHANNELS 3 Xrotation Yrotation Zrotation
				JOINT RightLegRoll
				{
					OFFSET 0.000000 -0.000003 20.384598
					CHANNELS 3 Xrotation Yrotation Zrotation
					JOINT RightFoot
					{
						OFFSET 0.000000 -0.000003 16.966797
						CHANNELS 3 Xrotation Yrotation Zrotation
						JOINT RightToeBase
						{
							OFFSET 0.000000 -0.000002 14.183403
							CHANNELS 3 Xrotation Yrotation Zrotation
							End Site
							{
								OFFSET 0.006012 0.791745 6.868889
							}
						}
					}
				}
			}
		}
	}
	JOINT LeftUpLeg
	{
		OFFSET 5.535149 0.851455 -1.014999
		CHANNELS 3 Xrotation Yrotation Zrotation
		JOINT LeftUpLegRoll
		{
			OFFSET 0.000000 -0.000003 16.407600
			CHANNELS 3 Xrotation Yrotation Zrotation
			JOINT LeftLeg
			{
				OFFSET 0.000000 -0.000003 20.318100
				CHANNELS 3 Xrotation Yrotation Zrotation
				JOINT LeftLegRoll
				{
					OFFSET 0.000000 -0.000003 20.573097
					CHANNELS 3 Xrotation Yrotation Zrotation
					JOINT LeftFoot
					{
						OFFSET 0.000000 -0.000003 16.778305
						CHANNELS 3 Xrotation Yrotation Zrotation
						JOINT LeftToeBase
						{
							OFFSET 0.000000 -0.000002 14.183395
							CHANNELS 3 Xrotation Yrotation Zrotation
							End Site
							{
								OFFSET -0.026943 0.791745 6.868896
							}
						}
					}
				}
			}
		}
	}
}
MOTION
Frames: 10
Frame Time: 0.041667
42.383198 -10.163216 83.343399 2.041716 2.177537 -7.952639 -0.824219 0.082948 -0.013129 2.354400 0.165973 -0.039922 3.999477 0.165481 -0.041903 2.876414 -6.053352 3.466421 5.310560 4.724933 4.021150 -4.406061 -64.311313 -5.649953 -45.555897 -118.883117 -49.795412 -0.000001 -0.000006 0.000001 25.118605 -16.756513 3.300212 0.000008 0.000001 -3.000000 -5.000357 -7.998909 0.000235 -18.730426 59.484295 22.132186 -17.138044 116.647910 22.480383 0.000000 0.000000 0.000000 62.030187 6.827108 -1.846730 -0.000006 0.000004 3.000010 -5.000338 7.999258 -0.000138 -12.927582 -173.547334 0.101999 -179.999991 0.000006 -0.992988 163.636443 0.724423 -0.890292 -0.000005 0.000001 0.121760 69.346146 6.437397 3.290198 25.460929 -7.351078 0.012405 -5.851376 168.071681 -5.957227 -0.000004 -0.000004 -0.452953 -17.676074 1.628675 1.501812 0.000004 0.000000 -0.060093 76.528540 -5.233845 -6.802071 25.465916 7.353558 -0.008746 
42.376701 -10.122416 83.312599 2.048791 2.149057 -7.905191 -0.827102 0.085494 -0.013522 2.348631 0.171064 -0.039683 3.993709 0.170575 -0.041725 2.878123 -5.989033 3.495087 5.295527 4.727022 4.037926 -4.379393 -64.295583 -5.617944 -45.441290 -118.830033 -49.456611 -0.000001 -0.000005 0.000001 24.893533 -16.665861 3.242034 0.000005 0.000002 -3.000000 -5.000354 -7.998909 0.000235 -18.726476 59.492799 22.127538 -17.156129 116.605918 22.486837 0.000000 0.000000 0.000000 61.976310 6.847268 -1.856171 -0.000009 0.000006 3.000010 -5.000339 7.999259 -0.000138 -12.983737 -173.594599 0.071811 -179.999991 0.000005 -0.984997 163.504005 0.732562 -0.900066 -0.000005 0.000001 0.119579 69.432472 6.400289 3.381130 25.460935 -7.351077 0.012404 -5.899990 168.075683 -5.926463 -0.000004 -0.000004 -0.449911 -17.696479 1.606118 1.505650 0.000006 0.000000 -0.057072 76.513405 -5.222054 -6.838874 25.465918 7.353558 -0.008736 
42.319096 -10.105013 83.304100 2.056188 2.119964 -7.857295 -0.830099 0.088155 -0.013883 2.342641 0.176389 -0.039337 3.987720 0.175904 -0.041445 2.879612 -5.926255 3.521532 5.279425 4.729145 4.052818 -4.352378 -64.280556 -5.585603 -45.324801 -118.775173 -49.115778 0.000000 -0.000005 0.000001 24.668997 -16.575667 3.185115 0.000007 0.000002 -3.000000 -5.000352 -7.998910 0.000235 -18.719236 59.500448 22.119002 -17.170756 116.565579 22.489634 0.000000 0.000000 -0.000000 61.922317 6.867281 -1.865318 -0.000006 0.000005 3.000010 -5.000341 7.999260 -0.000139 -13.040341 -173.639910 0.043287 -179.999991 0.000005 -0.977990 163.370065 0.739711 -0.910067 -0.000006 0.000001 0.117476 69.520029 6.363464 3.472503 25.460929 -7.351076 0.012404 -5.949092 168.081694 -5.895154 -0.000004 -0.000004 -0.446923 -17.717087 1.583652 1.509442 0.000005 0.000001 -0.054082 76.498535 -5.210342 -6.875273 25.465918 7.353556 -0.008716 
42.234795 -10.119818 83.313301 2.063814 2.090445 -7.809076 -0.833171 0.090900 -0.014218 2.336492 0.181877 -0.038919 3.981581 0.181398 -0.041091 2.880962 -5.864542 3.546414 5.262576 4.731294 4.066392 -4.325111 -64.266042 -5.553025 -45.205716 -118.719479 -48.772236 -0.000002 -0.000007 0.000001 24.445044 -16.485652 3.129335 0.000004 0.000002 -3.000001 -5.000353 -7.998912 0.000235 -18.709789 59.507716 22.107881 -17.183207 116.525978 22.490151 0.000000 0.000000 0.000000 61.868284 6.887224 -1.874460 -0.000009 0.000005 3.000010 -5.000334 7.999258 -0.000138 -13.097298 -173.683282 0.015804 -179.999991 0.000005 -0.970995 163.235224 0.746853 -0.919010 -0.000005 0.000001 0.115428 69.608616 6.326902 3.564024 25.460927 -7.351074 0.012405 -5.998579 168.087704 -5.863327 -0.000005 -0.000003 -0.443973 -17.737699 1.561238 1.513193 0.000004 0.000001 -0.051113 76.483809 -5.198668 -6.911566 25.465916 7.353557 -0.008687 
42.202396 -10.091516 83.290794 2.071560 2.060683 -7.760671 -0.836286 0.093691 -0.014540 2.330263 0.187460 -0.038455 3.975343 0.186985 -0.040696 2.882226 -5.803443 3.570412 5.245300 4.733446 4.079212 -4.297756 -64.251822 -5.520372 -45.084976 -118.663349 -48.427059 -0.000001 -0.000006 0.000001 24.221550 -16.395748 3.074562 0.000008 0.000001 -3.000000 -5.000355 -7.998911 0.000234 -18.698978 59.514546 22.095143 -17.194178 116.487223 22.489091 0.000000 0.000000 -0.000000 61.814264 6.907188 -1.883577 -0.000007 0.000006 3.000011 -5.000334 7.999257 -0.000139 -13.154352 -173.726640 -0.010775 -179.999991 0.000004 -0.963987 163.099685 0.753013 -0.929213 -0.000005 0.000002 0.113413 69.697702 6.290678 3.655837 25.460930 -7.351077 0.012404 -6.048257 168.094726 -5.831302 -0.000005 -0.000004 -0.441045 -17.758415 1.538855 1.516920 0.000005 0.000000 -0.048156 76.469207 -5.186999 -6.947750 25.465921 7.353558 -0.008657 
42.178696 -10.054315 83.288200 2.079337 2.030883 -7.712220 -0.839415 0.096494 -0.014857 2.324003 0.193065 -0.037982 3.969084 0.192596 -0.040289 2.883463 -5.742490 3.594174 5.227918 4.735599 4.091843 -4.270359 -64.237601 -5.487683 -44.961400 -118.607574 -48.079194 -0.000000 -0.000006 0.000001 23.998396 -16.305709 3.020604 0.000007 0.000001 -3.000001 -5.000352 -7.998912 0.000235 -18.687843 59.521335 22.082029 -17.204951 116.448442 22.487809 0.000000 0.000000 0.000001 61.760128 6.927147 -1.892668 -0.000009 0.000005 3.000010 -5.000339 7.999261 -0.000139 -13.211503 -173.769998 -0.037102 -179.999991 0.000004 -0.955996 162.964038 0.759169 -0.938382 -0.000005 0.000001 0.111403 69.787000 6.254761 3.747753 25.460935 -7.351077 0.012404 -6.097983 168.101774 -5.799217 -0.000005 -0.000004 -0.438123 -17.779131 1.516479 1.520621 0.000005 0.000001 -0.045202 76.454624 -5.175332 -6.983933 25.465921 7.353557 -0.008616 
42.123196 -10.039016 83.276489 2.087044 2.001213 -7.663853 -0.842522 0.099273 -0.015182 2.317794 0.198624 -0.037528 3.962874 0.198160 -0.039902 2.884741 -5.681231 3.618391 5.210753 4.737739 4.104847 -4.243074 -64.223272 -5.455096 -44.836090 -118.552618 -47.729826 -0.000001 -0.000005 0.000001 23.775443 -16.215456 2.967362 0.000006 0.000001 -3.000001 -5.000354 -7.998911 0.000234 -18.677349 59.528234 22.069659 -17.216243 116.409714 22.487057 0.000000 0.000000 0.000000 61.706012 6.947124 -1.901632 -0.000006 0.000005 3.000011 -5.000338 7.999257 -0.000139 -13.268556 -173.813329 -0.063750 -179.999991 0.000005 -0.948988 162.828705 0.766253 -0.947221 -0.000005 0.000001 0.109380 69.876059 6.219160 3.839698 25.460929 -7.351075 0.012404 -6.147613 168.108810 -5.767294 -0.000005 -0.000004 -0.435189 -17.799750 1.494081 1.524315 0.000004 0.000001 -0.042242 76.439939 -5.163645 -7.020115 25.465921 7.353557 -0.008587 
42.045296 -10.043818 83.266602 2.094603 1.971862 -7.615695 -0.845573 0.101994 -0.015524 2.311695 0.204066 -0.037124 3.956776 0.203606 -0.039564 2.886141 -5.619210 3.643696 5.194112 4.739846 4.118802 -4.215994 -64.208532 -5.422738 -44.709377 -118.498618 -47.379530 -0.000001 -0.000006 0.000001 23.552432 -16.124565 2.914532 0.000005 0.000002 -3.000000 -5.000353 -7.998911 0.000234 -18.668522 59.535603 22.059257 -17.229309 116.370181 22.488178 0.000000 0.000000 -0.000000 61.652020 6.967242 -1.910647 -0.000006 0.000005 3.000010 -5.000335 7.999259 -0.000138 -13.325379 -173.857602 -0.091121 -179.999991 0.000005 -0.941993 162.694163 0.773337 -0.957046 -0.000005 0.000002 0.107315 69.964592 6.183894 3.931691 25.460930 -7.351079 0.012405 -6.196992 168.114861 -5.735656 -0.000005 -0.000004 -0.432229 -17.820367 1.471638 1.528016 0.000005 0.000001 -0.039267 76.425261 -5.151868 -7.056379 25.465918 7.353557 -0.008566 
42.006298 -10.018914 83.258385 2.101908 1.943033 -7.567889 -0.848533 0.104621 -0.015891 2.305766 0.209320 -0.036803 3.950857 0.208864 -0.039307 2.887718 -5.555952 3.670787 5.178331 4.741907 4.134270 -4.189267 -64.193273 -5.390693 -44.580737 -118.446627 -47.027796 -0.000001 -0.000006 0.000001 23.329580 -16.033104 2.862187 0.000003 0.000001 -3.000001 -5.000352 -7.998911 0.000235 -18.662242 59.543520 22.051865 -17.245521 116.328954 22.492631 0.000000 0.000001 0.000000 61.598150 6.987409 -1.919638 -0.000006 0.000004 3.000010 -5.000338 7.999261 -0.000137 -13.381875 -173.902832 -0.119810 -179.999991 0.000005 -0.934985 162.560715 0.781364 -0.966547 -0.000005 0.000001 0.105190 70.052162 6.148933 4.023649 25.460929 -7.351078 0.012404 -6.245969 168.119915 -5.704527 -0.000005 -0.000002 -0.429224 -17.840893 1.449125 1.531715 0.000005 0.000000 -0.036267 76.410337 -5.140016 -7.093045 25.465915 7.353556 -0.008546 
41.946991 -9.985295 83.246490 2.108869 1.914893 -7.520561 -0.851375 0.107121 -0.016296 2.300086 0.214318 -0.036598 3.945177 0.213865 -0.039161 2.889531 -5.491013 3.700319 5.163743 4.743907 4.151825 -4.162978 -64.177195 -5.359080 -44.449522 -118.397614 -46.673968 -0.000002 -0.000006 0.000001 23.106433 -15.940757 2.810023 0.000003 0.000003 -3.000000 -5.000354 -7.998911 0.000234 -18.659503 59.552242 22.048663 -17.264949 116.287113 22.500429 0.000000 0.000001 0.000000 61.544321 7.007833 -1.928846 -0.000005 0.000004 3.000010 -5.000338 7.999261 -0.000138 -13.437794 -173.950957 -0.149975 -179.999991 0.000006 -0.926995 162.428865 0.790328 -0.975735 -0.000005 0.000002 0.102976 70.138366 6.114323 4.115500 25.460927 -7.351073 0.012402 -6.294387 168.123973 -5.674143 -0.000005 -0.000004 -0.426160 -17.861319 1.426514 1.535442 0.000005 0.000001 -0.033234 76.395283 -5.128025 -7.129899 25.465916 7.353558 -0.008527 
